Coordinates
version=1
nRows=11
nColumns=63
inDegrees=yes

Units are S.I. units (second, meters, Newtons, ...)
If the header above contains a line with 'inDegrees', this indicates whether rotational values are in degrees (yes) or radians (no).

endheader
time	pelvis_tilt	pelvis_list	pelvis_rotation	pelvis_tx	pelvis_ty	pelvis_tz	hip_flexion_r	hip_adduction_r	hip_rotation_r	knee_angle_r	knee_angle_r_beta	ankle_angle_r	subtalar_angle_r	mtp_angle_r	hip_flexion_l	hip_adduction_l	hip_rotation_l	knee_angle_l	knee_angle_l_beta	ankle_angle_l	subtalar_angle_l	mtp_angle_l	L5_S1_Flex_Ext	L5_S1_Lat_Bending	L5_S1_axial_rotation	L4_L5_Flex_Ext	L4_L5_Lat_Bending	L4_L5_axial_rotation	L3_L4_Flex_Ext	L3_L4_Lat_Bending	L3_L4_axial_rotation	L2_L3_Flex_Ext	L2_L3_Lat_Bending	L2_L3_axial_rotation	L1_L2_Flex_Ext	L1_L2_Lat_Bending	L1_L2_axial_rotation	L1_T12_Flex_Ext	L1_T12_Lat_Bending	L1_T12_axial_rotation	Abs_r3	Abs_r2	Abs_r1	Abs_t1	Abs_t2	neck_flexion	neck_bending	neck_rotation	arm_flex_r	arm_add_r	arm_rot_r	elbow_flex_r	pro_sup_r	wrist_flex_r	wrist_dev_r	arm_flex_l	arm_add_l	arm_rot_l	elbow_flex_l	pro_sup_l	wrist_flex_l	wrist_dev_l
1.266667	6.979556	-12.846099	103.900942	0.173311	0.433719	0.983539	26.251189	6.045565	0.141092	27.879685	0.486592	40.649261	-14.239354	0.000000	31.428287	-0.170007	17.048433	34.269167	0.598110	44.315554	-11.745633	0.000000	-0.122772	0.399174	-2.494638	-0.227999	0.530902	-2.650553	-0.201701	0.970552	-2.650553	-0.140316	0.970552	-2.182808	-0.114006	0.813996	-2.026893	-0.070152	0.618321	-1.870979	-0.876945	4.515537	-13.874428	0.000000	0.000000	18.615829	-0.641907	10.738110	5.908293	-25.212514	22.656361	93.388090	87.460684	4.853705	15.057088	7.261675	-14.356607	-0.192705	109.616226	87.809181	-5.213482	10.075631
1.283333	7.318320	-12.779115	104.338532	0.171829	0.432616	0.984241	26.347004	6.130081	-0.344515	28.068643	0.489890	40.856436	-13.979768	0.000000	31.774204	-0.199481	17.445455	34.721100	0.605998	44.675469	-11.544551	0.000000	-0.119871	0.451475	-2.621860	-0.222612	0.600461	-2.785726	-0.196936	1.097715	-2.785726	-0.137001	1.097715	-2.294127	-0.111312	0.920647	-2.130261	-0.068494	0.699334	-1.966395	-0.856227	5.107170	-14.581997	0.000000	0.000000	17.982934	-0.830139	12.219396	5.403341	-26.066982	23.457857	93.782493	87.686059	6.105986	15.610601	7.742956	-14.258253	-0.693509	109.773052	87.763660	-6.705858	9.916700
1.300000	7.478417	-12.770855	104.367286	0.171046	0.431727	0.984889	26.501908	6.211747	-0.480965	28.313641	0.494166	41.000210	-13.727412	0.000000	32.050472	-0.260401	17.477253	35.077080	0.612211	44.864577	-11.457288	0.000000	-0.116736	0.479239	-2.660533	-0.216791	0.637388	-2.826816	-0.191786	1.165221	-2.826816	-0.133418	1.165221	-2.327966	-0.108401	0.977264	-2.161683	-0.066703	0.742341	-1.995399	-0.833836	5.421245	-14.797084	0.000000	0.000000	17.528998	-0.846313	13.042206	5.538446	-26.571010	24.098037	94.152452	87.890050	6.841700	16.184174	7.478033	-14.311821	-1.247389	109.875019	87.639025	-7.516937	10.235302
1.316667	7.416508	-12.818380	103.953476	0.171099	0.431168	0.985447	26.703984	6.276514	-0.203143	28.601495	0.499190	41.050408	-13.543902	0.000000	32.220416	-0.348375	17.064379	35.282317	0.615793	44.889784	-11.412626	0.000000	-0.115319	0.476250	-2.602030	-0.214159	0.633412	-2.764656	-0.189457	1.157954	-2.764656	-0.131798	1.157954	-2.276776	-0.107085	0.971168	-2.114149	-0.065893	0.737711	-1.951522	-0.823711	5.387432	-14.471708	0.000000	0.000000	17.251507	-0.673183	13.162043	6.247852	-26.686816	24.527064	94.530491	88.098224	7.068110	16.669740	6.509459	-14.558983	-1.800391	109.867495	87.540234	-7.758670	10.686537
1.333333	7.097039	-12.912222	103.067951	0.172102	0.430990	0.985924	26.955970	6.303185	0.492703	28.938010	0.505064	41.027369	-13.383383	0.000000	32.264143	-0.455657	16.153499	35.312770	0.616324	44.764678	-11.398943	0.000000	-0.117209	0.437152	-2.445100	-0.217669	0.581413	-2.597918	-0.192563	1.062892	-2.597918	-0.133958	1.062892	-2.139462	-0.108840	0.891441	-1.986643	-0.066973	0.677149	-1.833825	-0.837212	4.945155	-13.598910	0.000000	0.000000	17.142865	-0.295069	12.549225	7.468309	-26.381146	24.730132	94.907272	88.307925	6.774269	16.921468	4.881653	-15.037216	-2.295674	109.727594	87.553871	-7.771292	10.900724
1.350000	6.612103	-13.067714	101.875845	0.173769	0.431133	0.986360	27.255827	6.319994	1.493984	29.278787	0.511011	40.922037	-13.347248	0.000000	32.243257	-0.585383	14.953759	35.208976	0.614513	44.533494	-11.437390	0.000000	-0.119252	0.375195	-2.212524	-0.221463	0.499010	-2.350807	-0.195919	0.912250	-2.350807	-0.136293	0.912250	-1.935958	-0.110737	0.765098	-1.797676	-0.068141	0.581178	-1.659393	-0.851805	4.244285	-12.305394	0.000000	0.000000	17.185310	0.210854	11.277213	9.106329	-25.708079	24.640145	95.342008	88.442667	6.079578	17.178702	2.721693	-15.653814	-2.708396	109.365928	87.642781	-7.476659	10.689290
1.366667	5.908197	-13.243310	100.346289	0.176171	0.431558	0.986838	27.603110	6.279005	2.765277	29.664373	0.517741	40.815949	-13.288423	0.000000	32.119837	-0.701522	13.414410	34.967561	0.610299	44.213379	-11.533242	0.000000	-0.124995	0.283975	-1.907192	-0.232128	0.377687	-2.026392	-0.205354	0.690457	-2.026392	-0.142857	0.690457	-1.668793	-0.116070	0.579082	-1.549594	-0.071422	0.439877	-1.430394	-0.892827	3.212383	-10.607230	0.000000	0.000000	17.353641	0.888463	9.460006	11.125821	-24.651345	24.293519	95.699129	88.437516	4.865860	17.188633	0.142039	-16.444566	-3.007801	108.870580	87.776152	-7.170790	10.183882
1.383333	5.035007	-13.431996	98.559034	0.179222	0.432140	0.987432	28.003904	6.212976	4.255087	30.096100	0.525276	40.705819	-13.252519	0.000000	31.933941	-0.822802	11.591609	34.645135	0.604672	43.836607	-11.659215	0.000000	-0.131881	0.169858	-1.540775	-0.244916	0.225911	-1.637073	-0.216667	0.412993	-1.637073	-0.150727	0.412993	-1.348178	-0.122465	0.346375	-1.251880	-0.075357	0.263110	-1.155581	-0.942013	1.921470	-8.569327	0.000000	0.000000	17.599476	1.706863	7.189567	13.455958	-23.259037	23.653091	95.890361	88.299272	3.163019	16.933407	-2.687564	-17.379972	-3.126500	108.242169	87.934284	-6.950902	9.249483
1.400000	4.039985	-13.621084	96.622900	0.182691	0.432752	0.988207	28.450396	6.106647	5.827117	30.571729	0.533577	40.637664	-13.157841	0.000000	31.710932	-0.925278	9.622480	34.283514	0.598360	43.435774	-11.832497	0.000000	-0.140056	0.040363	-1.140234	-0.260099	0.053683	-1.211499	-0.230099	0.098138	-1.211499	-0.160070	0.098138	-0.997705	-0.130056	0.082308	-0.926440	-0.080028	0.062522	-0.855176	-1.000409	0.456594	-6.341641	0.000000	0.000000	17.905148	2.642407	4.651854	16.080442	-21.586758	22.793418	95.785329	88.093392	0.986672	16.349125	-5.611034	-18.357961	-3.117998	107.602041	88.117722	-6.787874	8.327887
1.416667	2.954439	-13.790301	94.615062	0.186451	0.433322	0.989148	28.913008	5.963341	7.442862	31.075938	0.542377	40.614459	-13.023840	0.000000	31.448584	-1.000518	7.551746	33.894995	0.591579	43.053813	-11.971460	0.000000	-0.150845	-0.100524	-0.721050	-0.280135	-0.133697	-0.766116	-0.247824	-0.244415	-0.766116	-0.172401	-0.244415	-0.630919	-0.140075	-0.204989	-0.585853	-0.086193	-0.155712	-0.540787	-1.077474	-1.137150	-4.010264	0.000000	0.000000	18.261412	3.662718	1.957664	18.908315	-19.691041	21.716376	95.311446	87.916142	-1.517240	15.366745	-8.407241	-19.333216	-2.943935	107.000502	88.306580	-6.745628	7.560739
1.433333	1.884430	-13.951283	92.685256	0.190176	0.433746	0.990240	29.378550	5.809978	8.959171	31.567473	0.550956	40.621257	-12.851564	0.000000	31.205797	-1.057235	5.561243	33.530958	0.585226	42.715603	-12.101080	0.000000	-0.161019	-0.238248	-0.319271	-0.299029	-0.316870	-0.339225	-0.264539	-0.579276	-0.339225	-0.184029	-0.579276	-0.279362	-0.149522	-0.485835	-0.259408	-0.092006	-0.369046	-0.239453	-1.150144	-2.695107	-1.775689	0.000000	0.000000	18.634994	4.689353	-0.705275	21.882322	-17.687066	20.576703	94.433274	87.802114	-4.141558	14.021894	-10.921171	-20.174063	-2.692110	106.485252	88.486449	-6.748802	7.077957
